<?xml version="1.0" encoding="UTF-8" standalone="no"?>
<!--?xml version="1.0" encoding="UTF-8"?-->

<svg
   viewBox="0 0 214.66841 59.999996"
   version="1.1"
   id="svg8"
   sodipodi:docname="eo-logo1.svg"
   width="214.66841"
   height="59.999996"
   inkscape:version="1.4.3 (0d15f75042, 2025-12-25)"
   xmlns:inkscape="http://www.inkscape.org/namespaces/inkscape"
   xmlns:sodipodi="http://sodipodi.sourceforge.net/DTD/sodipodi-0.dtd"
   xmlns="http://www.w3.org/2000/svg"
   xmlns:svg="http://www.w3.org/2000/svg">
  <defs
     id="defs8" />
  <sodipodi:namedview
     id="namedview8"
     pagecolor="#ffffff"
     bordercolor="#000000"
     borderopacity="0.25"
     inkscape:showpageshadow="2"
     inkscape:pageopacity="0.0"
     inkscape:pagecheckerboard="0"
     inkscape:deskcolor="#d1d1d1"
     inkscape:zoom="5.814413"
     inkscape:cx="117.7247"
     inkscape:cy="60.969181"
     inkscape:window-width="2544"
     inkscape:window-height="1358"
     inkscape:window-x="26"
     inkscape:window-y="23"
     inkscape:window-maximized="0"
     inkscape:current-layer="svg8" />
  <!-- Baseline before burst -->
  <rect
     style="fill:#ffffff;fill-opacity:1;stroke:#c12525;stroke-width:4.77754;stroke-linecap:round;stroke-dasharray:none;stroke-opacity:1"
     id="rect8"
     width="209.89087"
     height="55.222454"
     x="2.3887701"
     y="2.3887701"
     ry="27.611227"
     rx="4.6213775" />
  <line
     x1="12.763539"
     y1="29.889656"
     x2="25.498863"
     y2="29.889656"
     stroke="currentColor"
     stroke-width="1.24823"
     stroke-linecap="round"
     id="line1"
     style="stroke-width:2.0879;stroke-dasharray:none" />
  <!-- Colour burst (replaces sync)
       Carrier frequency chosen so a peak occurs exactly at centre.
       Envelope is symmetric and peaks at centre.
       Peak-to-peak amplitude is symmetric about the baseline. -->
  <path
     style="baseline-shift:baseline;display:inline;overflow:visible;opacity:1;vector-effect:non-scaling-stroke;fill:currentColor;stroke-linecap:round;stroke-linejoin:round;enable-background:accumulate;stop-color:#000000;stop-opacity:1"
     d="m 55.88633,6.8994233 c -1.436049,0.193695 -1.423177,1.977031 -2.029236,3.031099 -0.385808,3.7205237 -0.414558,7.5000597 -0.66118,11.2435757 -0.371844,7.252854 -0.744048,14.505689 -1.116222,21.758526 -0.610693,-7.282927 -0.845332,-14.595468 -1.480766,-21.87426 -0.285722,-2.428633 -0.571443,-4.857266 -0.857165,-7.285897 -1.45846,-2.255401 -2.373877,0.814598 -2.734435,2.102436 -0.567017,1.988789 -0.401749,4.122908 -0.662892,6.17178 -0.445376,5.832396 -0.890282,11.664828 -1.33509,17.497267 -0.786059,-6.233573 -0.82799,-12.550831 -1.979137,-18.738312 0.183898,-1.513087 -1.333737,-4.040293 -2.377355,-1.632592 -0.729408,1.610057 -1.094414,3.313663 -1.213741,5.072136 -0.511899,4.147827 -1.024462,8.295572 -1.537158,12.443301 -0.707025,-3.371786 -0.858819,-6.863746 -2.081918,-10.114211 -0.922799,-2.38441 -2.509053,0.07119 -2.631535,1.498917 -0.55786,1.570384 -0.843887,3.216868 -1.255293,4.828181 -0.7871,-2.100309 -0.696165,-4.557972 -2.199197,-6.337858 -1.64614,-1.780417 -2.283527,0.941332 -2.697132,2.148663 -0.102431,1.749532 -1.923743,-1.021336 -2.2789,1.047652 0.181464,1.533139 2.348552,3.415142 3.247483,1.349565 0.624052,-0.535392 0.974387,-2.675301 1.157036,-0.905249 0.415059,1.934588 1.007963,3.818988 1.635943,5.693318 1.390405,1.797483 2.469358,-0.855488 2.9592,-2.025607 0.320502,-1.344913 0.639023,-2.690334 0.960766,-4.034929 0.625184,3.697101 1.151295,7.417736 2.054692,11.064456 1.53351,2.069453 2.337245,-0.917093 2.763445,-2.157903 0.599281,-2.531447 0.68971,-5.180636 1.08534,-7.759079 0.290409,-2.35192 0.581307,-4.70378 0.871922,-7.055675 0.794561,5.71259 0.906084,11.503263 1.692171,17.220426 0.190498,1.619232 0.380996,3.238464 0.571494,4.857696 1.458459,2.255403 2.373877,-0.814598 2.734435,-2.102437 0.567017,-1.988789 0.401749,-4.122908 0.662892,-6.17178 0.445209,-5.831106 0.890175,-11.662232 1.33509,-17.493361 0.614793,5.607127 0.753693,11.256912 1.167293,16.882074 0.323591,4.950282 0.735415,9.894628 1.094426,14.842534 1.352496,2.317644 2.409584,-0.705445 2.833812,-1.973203 0.419275,-2.323766 0.297429,-4.748259 0.498801,-7.112413 0.473948,-9.245574 0.948471,-18.491118 1.423243,-27.73665 0.55576,5.641369 0.627049,11.320261 0.977711,16.977515 0.284774,6.621129 0.833819,13.22653 1.26643,19.838893 1.690306,2.43753 2.292824,-1.004654 2.179423,-2.432166 0.763471,-9.157402 1.247159,-18.335325 1.868304,-27.501592 0.111398,-0.934 0.236723,-2.547268 0.29147,-0.718385 0.581971,7.334975 1.075758,14.682587 1.713533,22.009607 0.547572,1.164858 0.558143,2.664379 1.610704,3.514523 1.857428,0.04527 1.306722,-2.167754 1.630321,-3.403083 0.853801,-6.165759 1.147238,-12.390681 1.816051,-18.573406 0.15622,-1.803709 0.253057,0.150824 0.369016,0.895115 0.565586,4.239443 0.968672,8.514094 1.634802,12.731631 0.506169,1.05112 0.577924,2.380542 1.533782,3.143572 1.779293,0.09585 1.436316,-2.071601 1.87908,-3.26087 0.686618,-2.785438 0.955413,-5.76818 1.508704,-8.504517 0.55713,2.097647 0.76037,4.338012 2.05232,6.152726 1.66832,1.664396 2.18137,-1.106394 2.56512,-2.295217 0.49352,-1.436344 0.76427,-2.935687 1.15014,-4.402432 0.42382,1.113483 1.0216,2.377958 2.16174,2.876358 1.72578,-0.212001 3.12793,-4.230416 0.24061,-2.909558 -0.57777,0.14552 -0.7035,-1.597429 -1.07797,-2.201431 -0.69284,-2.258283 -2.65926,-0.286066 -3.09977,1.074478 -0.41417,1.579887 -0.71741,3.191178 -1.21289,4.748047 -0.49923,-2.273808 -1.09117,-4.521862 -1.86523,-6.718748 -1.685866,-1.901038 -2.255498,1.103499 -2.617486,2.357386 -0.769379,2.654191 -0.876047,5.455093 -1.486029,8.148475 -0.675306,-5.125309 -1.187801,-10.285915 -1.963245,-15.389386 -0.510083,-1.055252 -0.575758,-2.397806 -1.551882,-3.151771 -1.819757,-0.0532 -1.350594,2.13572 -1.721823,3.353872 -1.070587,5.960959 -1.100651,12.043416 -1.870462,18.042751 C 64.88106,31.852181 64.36008,24.14775 63.695019,16.463919 c -0.547572,-1.164857 -0.558143,-2.664377 -1.610704,-3.514521 -1.857428,-0.04527 -1.306722,2.167752 -1.630321,3.40308 -0.596275,4.31067 -0.915069,8.646245 -1.13554,12.990594 -0.176576,2.859944 -0.353151,5.719889 -0.529726,8.579833 C 58.35385,30.64109 58.144701,23.342689 57.615833,16.068473 57.325158,13.307062 57.034483,10.545648 56.743808,7.7842343 L 56.46751,7.1940973 Z"
     id="polyline1" />
  <!-- Baseline after burst -->
  <line
     x1="85.121635"
     y1="29.889656"
     x2="105.7198"
     y2="29.889656"
     stroke="currentColor"
     stroke-width="2"
     stroke-linecap="round"
     id="line2"
     style="stroke-width:2.02968;stroke-dasharray:none" />
  <!-- Straight colour bars -->
  <line
     x1="105.74963"
     y1="29.889656"
     x2="115.74961"
     y2="29.889656"
     stroke="#d32f2f"
     stroke-width="2"
     stroke-linecap="round"
     id="line3" />
  <line
     x1="115.74961"
     y1="29.889656"
     x2="125.74961"
     y2="29.889656"
     stroke="#1976d2"
     stroke-width="2"
     stroke-linecap="round"
     id="line4" />
  <line
     x1="125.74961"
     y1="29.889656"
     x2="135.74963"
     y2="29.889656"
     stroke="#388e3c"
     stroke-width="2"
     stroke-linecap="round"
     id="line5" />
  <line
     x1="135.74963"
     y1="29.889656"
     x2="145.74963"
     y2="29.889656"
     stroke="#fbc02d"
     stroke-width="2"
     stroke-linecap="round"
     id="line6" />
  <line
     x1="145.74963"
     y1="29.889656"
     x2="155.74963"
     y2="29.889656"
     stroke="#7b1fa2"
     stroke-width="2"
     stroke-linecap="round"
     id="line7" />
  <!-- Back to monochrome baseline -->
  <line
     x1="155.99658"
     y1="29.889656"
     x2="197.48735"
     y2="29.889656"
     stroke="currentColor"
     stroke-width="3.26782"
     stroke-linecap="round"
     id="line8"
     style="stroke-width:2;stroke-dasharray:none" />
  <!-- Wordmark -->
  <text
     x="83.927528"
     y="49.399971"
     font-family="'JetBrains Mono', 'IBM Plex Mono', monospace"
     font-size="22px"
     fill="currentColor"
     id="text8"><tspan
       style="font-style:normal;font-variant:normal;font-weight:normal;font-stretch:normal;font-family:'Noto Sans NKo';-inkscape-font-specification:'Noto Sans NKo'"
       id="tspan8">encode-orc</tspan></text>
</svg>
