<?xml version="1.0" encoding="UTF-8" standalone="no"?>
<!--?xml version="1.0" encoding="UTF-8"?-->

<svg
   viewBox="0 0 214.66841 59.999996"
   version="1.1"
   id="svg8"
   sodipodi:docname="decode-orc_logotype.svg"
   width="214.66841"
   height="59.999996"
   inkscape:version="1.4.3 (0d15f75042, 2025-12-25)"
   inkscape:export-filename="decode-orc_logotype.png"
   inkscape:export-xdpi="457.93417"
   inkscape:export-ydpi="457.93417"
   xmlns:inkscape="http://www.inkscape.org/namespaces/inkscape"
   xmlns:sodipodi="http://sodipodi.sourceforge.net/DTD/sodipodi-0.dtd"
   xmlns="http://www.w3.org/2000/svg"
   xmlns:svg="http://www.w3.org/2000/svg">
  <defs
     id="defs8" />
  <sodipodi:namedview
     id="namedview8"
     pagecolor="#ffffff"
     bordercolor="#000000"
     borderopacity="0.25"
     inkscape:showpageshadow="2"
     inkscape:pageopacity="0.0"
     inkscape:pagecheckerboard="0"
     inkscape:deskcolor="#d1d1d1"
     inkscape:zoom="5.814413"
     inkscape:cx="117.7247"
     inkscape:cy="60.969181"
     inkscape:window-width="5120"
     inkscape:window-height="1374"
     inkscape:window-x="0"
     inkscape:window-y="0"
     inkscape:window-maximized="1"
     inkscape:current-layer="svg8" />
  <!-- Baseline before burst -->
  <rect
     style="fill:#ffffff;fill-opacity:1;stroke:#c12525;stroke-width:4.77754;stroke-linecap:round;stroke-dasharray:none;stroke-opacity:1"
     id="rect8"
     width="209.89087"
     height="55.222454"
     x="2.3887701"
     y="2.3887701"
     ry="27.611227"
     rx="4.6213775" />
  <line
     x1="186.76352"
     y1="29.889656"
     x2="199.49887"
     y2="29.889656"
     stroke="currentColor"
     stroke-width="1.24823"
     stroke-linecap="round"
     id="line1"
     style="stroke-width:2.0879;stroke-dasharray:none" />
  <!-- Colour burst (replaces sync)
       Carrier frequency chosen so a peak occurs exactly at centre.
       Envelope is symmetric and peaks at centre.
       Peak-to-peak amplitude is symmetric about the baseline. -->
  <path
     style="baseline-shift:baseline;display:inline;overflow:visible;opacity:1;vector-effect:non-scaling-stroke;fill:currentColor;stroke-linecap:round;stroke-linejoin:round;enable-background:accumulate;stop-color:#000000;stop-opacity:1"
     d="m 157.88633,6.8994233 c -1.43605,0.193695 -1.42318,1.977031 -2.02924,3.031099 -0.3858,3.7205237 -0.41455,7.5000597 -0.66118,11.2435757 -0.37184,7.252854 -0.74404,14.505689 -1.11622,21.758526 -0.61069,-7.282927 -0.84533,-14.595468 -1.48076,-21.87426 -0.28573,-2.428633 -0.57145,-4.857266 -0.85717,-7.285897 -1.45846,-2.255401 -2.37388,0.814598 -2.73443,2.102436 -0.56702,1.988789 -0.40175,4.122908 -0.6629,6.17178 -0.44537,5.832396 -0.89028,11.664828 -1.33509,17.497267 -0.78605,-6.233573 -0.82799,-12.550831 -1.97913,-18.738312 0.1839,-1.513087 -1.33374,-4.040293 -2.37736,-1.632592 -0.72941,1.610057 -1.09441,3.313663 -1.21374,5.072136 -0.5119,4.147827 -1.02446,8.295572 -1.53716,12.443301 -0.70702,-3.371786 -0.85882,-6.863746 -2.08191,-10.114211 -0.9228,-2.38441 -2.50906,0.07119 -2.63154,1.498917 -0.55786,1.570384 -0.84389,3.216868 -1.25529,4.828181 -0.7871,-2.100309 -0.69617,-4.557972 -2.1992,-6.337858 -1.64614,-1.780417 -2.28353,0.941332 -2.69713,2.148663 -0.10243,1.749532 -1.92374,-1.021336 -2.2789,1.047652 0.18146,1.533139 2.34855,3.415142 3.24748,1.349565 0.62405,-0.535392 0.97439,-2.675301 1.15704,-0.905249 0.41506,1.934588 1.00796,3.818988 1.63594,5.693318 1.39041,1.797483 2.46936,-0.855488 2.9592,-2.025607 0.3205,-1.344913 0.63902,-2.690334 0.96077,-4.034929 0.62518,3.697101 1.15129,7.417736 2.05469,11.064456 1.53351,2.069453 2.33724,-0.917093 2.76344,-2.157903 0.59928,-2.531447 0.68971,-5.180636 1.08534,-7.759079 0.29041,-2.35192 0.58131,-4.70378 0.87193,-7.055675 0.79456,5.71259 0.90608,11.503263 1.69217,17.220426 0.19049,1.619232 0.38099,3.238464 0.57149,4.857696 1.45846,2.255403 2.37388,-0.814598 2.73444,-2.102437 0.56701,-1.988789 0.40174,-4.122908 0.66289,-6.17178 0.44521,-5.831106 0.89017,-11.662232 1.33509,-17.493361 0.61479,5.607127 0.75369,11.256912 1.16729,16.882074 0.32359,4.950282 0.73542,9.894628 1.09443,14.842534 1.35249,2.317644 2.40958,-0.705445 2.83381,-1.973203 0.41927,-2.323766 0.29743,-4.748259 0.4988,-7.112413 0.47395,-9.245574 0.94847,-18.491118 1.42324,-27.73665 0.55576,5.641369 0.62705,11.320261 0.97771,16.977515 0.28478,6.621129 0.83382,13.22653 1.26643,19.838893 1.69031,2.43753 2.29283,-1.004654 2.17943,-2.432166 0.76347,-9.157402 1.24716,-18.335325 1.8683,-27.501592 0.1114,-0.934 0.23672,-2.547268 0.29147,-0.718385 0.58197,7.334975 1.07576,14.682587 1.71353,22.009607 0.54758,1.164858 0.55815,2.664379 1.61071,3.514523 1.85743,0.04527 1.30672,-2.167754 1.63032,-3.403083 0.8538,-6.165759 1.14724,-12.390681 1.81605,-18.573406 0.15622,-1.803709 0.25306,0.150824 0.36902,0.895115 0.56558,4.239443 0.96867,8.514094 1.6348,12.731631 0.50617,1.05112 0.57792,2.380542 1.53378,3.143572 1.77929,0.09585 1.43632,-2.071601 1.87908,-3.26087 0.68662,-2.785438 0.95541,-5.76818 1.5087,-8.504517 0.55713,2.097647 0.76037,4.338012 2.05232,6.152726 1.66832,1.664396 2.18137,-1.106394 2.56512,-2.295217 0.49352,-1.436344 0.76427,-2.935687 1.15014,-4.402432 0.42382,1.113483 1.0216,2.377958 2.16174,2.876358 1.72578,-0.212001 3.12793,-4.230416 0.24061,-2.909558 -0.57777,0.14552 -0.7035,-1.597429 -1.07797,-2.201431 -0.69284,-2.258283 -2.65926,-0.286066 -3.09977,1.074478 -0.41417,1.579887 -0.71741,3.191178 -1.21289,4.748047 -0.49923,-2.273808 -1.09117,-4.521862 -1.86523,-6.718748 -1.68586,-1.901038 -2.2555,1.103499 -2.61748,2.357386 -0.76938,2.654191 -0.87605,5.455093 -1.48603,8.148475 -0.67531,-5.125309 -1.1878,-10.285915 -1.96325,-15.389386 -0.51008,-1.055252 -0.57575,-2.397806 -1.55188,-3.151771 -1.81976,-0.0532 -1.35059,2.13572 -1.72182,3.353872 -1.07059,5.960959 -1.10065,12.043416 -1.87046,18.042751 -0.60888,-7.691816 -1.12986,-15.396247 -1.79492,-23.080078 -0.54757,-1.164857 -0.55814,-2.664377 -1.6107,-3.514521 -1.85743,-0.04527 -1.30673,2.167752 -1.63033,3.40308 -0.59627,4.31067 -0.91506,8.646245 -1.13554,12.990594 -0.17657,2.859944 -0.35315,5.719889 -0.52972,8.579833 -0.43488,-7.281815 -0.64403,-14.580216 -1.1729,-21.854432 -0.29067,-2.761411 -0.58135,-5.522825 -0.87202,-8.2842387 l -0.2763,-0.590137 z"
     id="polyline1" />
  <!-- Baseline after burst -->
  <line
     x1="15.121635"
     y1="29.889656"
     x2="35.719803"
     y2="29.889656"
     stroke="currentColor"
     stroke-width="2"
     stroke-linecap="round"
     id="line2"
     style="stroke-width:2.02968;stroke-dasharray:none" />
  <!-- Straight colour bars -->
  <line
     x1="35.749634"
     y1="29.889656"
     x2="45.749611"
     y2="29.889656"
     stroke="#d32f2f"
     stroke-width="2"
     stroke-linecap="round"
     id="line3" />
  <line
     x1="45.749611"
     y1="29.889656"
     x2="55.749611"
     y2="29.889656"
     stroke="#1976d2"
     stroke-width="2"
     stroke-linecap="round"
     id="line4" />
  <line
     x1="55.749611"
     y1="29.889656"
     x2="65.749634"
     y2="29.889656"
     stroke="#388e3c"
     stroke-width="2"
     stroke-linecap="round"
     id="line5" />
  <line
     x1="65.749634"
     y1="29.889656"
     x2="75.749634"
     y2="29.889656"
     stroke="#fbc02d"
     stroke-width="2"
     stroke-linecap="round"
     id="line6" />
  <line
     x1="75.749634"
     y1="29.889656"
     x2="85.749634"
     y2="29.889656"
     stroke="#7b1fa2"
     stroke-width="2"
     stroke-linecap="round"
     id="line7" />
  <!-- Back to monochrome baseline -->
  <line
     x1="85.996582"
     y1="29.889656"
     x2="127.48735"
     y2="29.889656"
     stroke="currentColor"
     stroke-width="3.26782"
     stroke-linecap="round"
     id="line8"
     style="stroke-width:2;stroke-dasharray:none" />
  <!-- Wordmark -->
  <text
     x="13.927528"
     y="49.399971"
     font-family="'JetBrains Mono', 'IBM Plex Mono', monospace"
     font-size="22px"
     fill="currentColor"
     id="text8"><tspan
       style="font-style:normal;font-variant:normal;font-weight:normal;font-stretch:normal;font-family:'Noto Sans NKo';-inkscape-font-specification:'Noto Sans NKo'"
       id="tspan8">decode-orc</tspan></text>
</svg>
