<?xml version="1.0" encoding="UTF-8" standalone="no"?>
<!-- Created with Inkscape (http://www.inkscape.org/) -->

<svg
   width="256"
   height="256"
   viewBox="0 40 298.66667 298.66667"
   version="1.1"
   id="svg1"
   xml:space="preserve"
   inkscape:version="1.4.3 (0d15f75042, 2025-12-25)"
   sodipodi:docname="orc-gui-icon.svg"
   inkscape:export-filename="orc-gui-icon-256.png"
   inkscape:export-xdpi="96"
   inkscape:export-ydpi="96"
   xmlns:inkscape="http://www.inkscape.org/namespaces/inkscape"
   xmlns:sodipodi="http://sodipodi.sourceforge.net/DTD/sodipodi-0.dtd"
   xmlns="http://www.w3.org/2000/svg"
   xmlns:svg="http://www.w3.org/2000/svg"><sodipodi:namedview
     id="namedview1"
     pagecolor="#ffffff"
     bordercolor="#000000"
     borderopacity="0.25"
     inkscape:showpageshadow="2"
     inkscape:pageopacity="0.0"
     inkscape:pagecheckerboard="0"
     inkscape:deskcolor="#d1d1d1"
     inkscape:document-units="mm"
     inkscape:zoom="2.4814911"
     inkscape:cx="56.417692"
     inkscape:cy="130.76815"
     inkscape:window-width="2544"
     inkscape:window-height="1358"
     inkscape:window-x="26"
     inkscape:window-y="23"
     inkscape:window-maximized="0"
     inkscape:current-layer="layer1" /><defs
     id="defs1"><inkscape:path-effect
       effect="fill_between_many"
       method="originald"
       linkedpaths="#path21-9,0,1"
       id="path-effect39"
       is_visible="true"
       lpeversion="0"
       join="true"
       close="true"
       autoreverse="true" /></defs><g
     inkscape:label="Layer 1"
     inkscape:groupmode="layer"
     id="layer1"><rect
       style="fill:#ffffff;fill-opacity:1;stroke:#c12525;stroke-width:12.5994;stroke-linecap:round;stroke-dasharray:none;stroke-opacity:1"
       id="rect8"
       width="284.75754"
       height="283.08963"
       x="7.2399902"
       y="47.710125"
       ry="141.54482"
       rx="6.2697921" /><path
       style="baseline-shift:baseline;display:inline;overflow:visible;fill:currentColor;stroke-width:4.18897642;stroke-linecap:round;stroke-linejoin:round;enable-background:accumulate;stop-color:#000000;stroke-dasharray:none"
       d="m 150.94764,60.060311 c -6.0133,0.81105 -5.95939,8.278588 -8.49721,12.692402 -1.61549,15.5793 -1.73587,31.405717 -2.76863,47.081317 -1.55703,30.37056 -3.1156,60.74105 -4.67407,91.11153 -2.55719,-30.4965 -3.5397,-61.11697 -6.20051,-91.59618 -1.19646,-10.16963 -2.39288,-20.339293 -3.58931,-30.508921 -6.10716,-9.444252 -9.94038,3.411028 -11.45014,8.803724 -2.37433,8.327837 -1.68229,17.264247 -2.77581,25.843687 -1.86495,24.42254 -3.72796,48.84526 -5.59057,73.26798 -3.29151,-26.10243 -3.46713,-52.5553 -8.287382,-78.4647 0.77006,-6.33591 -5.5849,-16.91833 -9.95496,-6.83635 -3.05434,6.74195 -4.58272,13.87562 -5.08241,21.23907 -2.14354,17.36859 -4.28981,34.73682 -6.43668,52.10501 -2.96058,-14.119 -3.59623,-28.74121 -8.7178,-42.35219 -3.86413,-9.98447 -10.50643,0.2979 -11.0193,6.27653 -2.33599,6.57584 -3.5337,13.47033 -5.25637,20.21751 -3.29593,-8.79482 -2.91515,-19.08601 -9.20895,-26.53912 -6.893012,-7.4553 -9.562046,3.94176 -11.293941,8.99732 -0.428909,7.32598 -8.055448,-4.27674 -9.542667,4.38693 0.759869,6.41985 9.834325,14.30054 13.598495,5.65116 2.613153,-2.24189 4.080163,-11.20253 4.844983,-3.79063 1.73803,8.10089 4.22072,15.99159 6.85034,23.84016 5.82218,7.5268 10.34019,-3.58227 12.39134,-8.48202 1.34204,-5.63167 2.67582,-11.26548 4.02313,-16.89582 2.61785,15.48121 4.8209,31.06097 8.60377,46.33125 6.42142,8.66561 9.78694,-3.84023 11.57163,-9.03599 2.50943,-10.60018 2.88809,-21.69338 4.54475,-32.49033 1.21606,-9.84843 2.43416,-19.69661 3.65111,-29.5449 3.32715,23.92084 3.7941,48.1687 7.08579,72.10871 0.79766,6.78038 1.59536,13.56073 2.393062,20.34112 6.10713,9.44425 9.94035,-3.41106 11.45018,-8.80376 2.37429,-8.32783 1.68222,-17.26425 2.77578,-25.84368 1.86426,-24.41716 3.72749,-48.83439 5.59053,-73.25162 2.57439,23.47927 3.15602,47.13713 4.88791,70.69191 1.355,20.72879 3.0795,41.43275 4.58283,62.15156 5.66339,9.7049 10.08984,-2.95398 11.86628,-8.26258 1.75565,-9.73053 1.24545,-19.88282 2.08866,-29.78247 1.98461,-38.7149 3.97162,-77.42962 5.95968,-116.144341 2.3272,23.622661 2.62571,47.402411 4.09405,71.091571 1.19248,27.72528 3.49154,55.38474 5.30304,83.07331 7.078,10.20688 9.60099,-4.2069 9.12614,-10.18445 3.19697,-38.34565 5.22235,-76.77725 7.8233,-115.16004 0.46649,-3.91104 0.99126,-10.66642 1.22051,-3.00818 2.43695,30.71447 4.50465,61.48182 7.17523,92.16295 2.29292,4.87771 2.33721,11.1568 6.74467,14.71671 7.77779,0.18951 5.47177,-9.07726 6.8268,-14.25008 3.5752,-25.81845 4.80396,-51.88467 7.60454,-77.77418 0.65413,-7.55286 1.05963,0.63155 1.54522,3.74819 2.36829,17.75224 4.05622,35.65188 6.84556,53.31238 2.11953,4.40147 2.41998,9.96827 6.42255,13.16338 7.45059,0.40137 6.01441,-8.67463 7.86845,-13.65456 2.87512,-11.66374 4.00066,-24.15364 6.31752,-35.61176 2.33291,8.78366 3.18398,18.16496 8.59386,25.7639 6.98591,6.96947 9.13426,-4.63293 10.74118,-9.61101 2.06655,-6.01452 3.2003,-12.29288 4.81609,-18.43472 1.77471,4.66262 4.27785,9.95747 9.05206,12.04445 7.22652,-0.88772 13.09787,-17.71441 1.00752,-12.18346 -2.41933,0.60934 -2.94583,-6.68907 -4.51388,-9.21827 -2.90118,-9.45631 -11.13537,-1.19786 -12.97997,4.49927 -1.7343,6.61561 -3.00408,13.36272 -5.07886,19.88196 -2.09045,-9.52135 -4.56915,-18.93484 -7.81045,-28.13406 -7.05933,-7.96041 -9.44464,4.62077 -10.96039,9.87129 -3.2217,11.11417 -3.66838,22.84265 -6.22263,34.12091 -2.82778,-21.4617 -4.97376,-43.07121 -8.22087,-64.44146 -2.13593,-4.41874 -2.4109,-10.04057 -6.49835,-13.1977 -7.62004,-0.22289 -5.65546,8.9431 -7.20994,14.04399 -4.48298,24.96089 -4.60885,50.43054 -7.83235,75.55211 -2.54962,-32.20865 -4.73117,-64.47014 -7.51606,-96.64539 -2.29289,-4.877715 -2.33714,-11.156799 -6.74464,-14.716707 -7.77779,-0.189509 -5.4718,9.077257 -6.82683,14.250042 -2.49682,18.050505 -3.83172,36.205265 -4.75497,54.396745 -0.73933,11.97575 -1.47874,23.95146 -2.21812,35.92717 -1.82101,-30.49183 -2.69681,-61.05312 -4.91142,-91.513159 -1.21713,-11.563098 -2.43433,-23.126232 -3.65147,-34.689365 l -1.15697,-2.471162 z"
       id="polyline1" /><text
       x="37.557228"
       y="301.87604"
       font-family="'JetBrains Mono', 'IBM Plex Mono', monospace"
       font-size="69.0825px"
       fill="currentColor"
       id="text8"
       style="stroke-width:3.14012"><tspan
         style="font-style:normal;font-variant:normal;font-weight:normal;font-stretch:normal;font-family:'Noto Sans NKo';-inkscape-font-specification:'Noto Sans NKo';stroke-width:3.14012"
         id="tspan8">orc-gui</tspan></text></g></svg>
